<?xml version="1.0" encoding="UTF-8" standalone="no"?>
<!DOCTYPE svg PUBLIC "-//W3C//DTD SVG 1.1//EN"
 "http://www.w3.org/Graphics/SVG/1.1/DTD/svg11.dtd">
<!-- Generated by graphviz version 12.1.2 (20240928.0832)
 -->
<!-- Title: 認可関連 ViewPoint Pages: 1 -->
<svg width="675pt" height="1432pt"
 viewBox="0.00 0.00 674.66 1432.00" xmlns="http://www.w3.org/2000/svg" xmlns:xlink="http://www.w3.org/1999/xlink">
<g id="graph0" class="graph" transform="scale(1 1) rotate(0) translate(4 1428)">
<title>認可関連 ViewPoint</title>
<polygon fill="white" stroke="none" points="-4,4 -4,-1428 670.66,-1428 670.66,4 -4,4"/>
<!-- m_permission -->
<g id="node1" class="node">
<title>m_permission</title>
<polygon fill="#efefef" stroke="none" points="43.2,-1334.8 43.2,-1380.8 391.41,-1380.8 391.41,-1334.8 43.2,-1334.8"/>
<polygon fill="none" stroke="black" points="43.2,-1334.8 43.2,-1380.8 391.41,-1380.8 391.41,-1334.8 43.2,-1334.8"/>
<text text-anchor="start" x="104.06" y="-1358.6" font-family="Arial Bold" font-size="18.00">m_permission</text>
<text text-anchor="start" x="206.06" y="-1358.6" font-family="Arial" font-size="14.00">    </text>
<text text-anchor="start" x="237.18" y="-1358.6" font-family="Arial" font-size="14.00" fill="#666666">[BASE TABLE]</text>
<text text-anchor="start" x="158.96" y="-1344.2" font-family="Arial" font-size="14.00" fill="#333333">パーミッションマスタ</text>
<polygon fill="none" stroke="black" points="43.2,-1304 43.2,-1334.8 391.41,-1334.8 391.41,-1304 43.2,-1304"/>
<text text-anchor="start" x="50.2" y="-1316.2" font-family="Arial" font-size="14.00">perm_id </text>
<text text-anchor="start" x="104.67" y="-1316.2" font-family="Arial" font-size="14.00" fill="#666666">[bigint unsigned]</text>
<text text-anchor="start" x="206.63" y="-1316.2" font-family="Arial" font-size="14.00"> パーミッションID</text>
<polygon fill="none" stroke="black" points="43.2,-1273.2 43.2,-1304 391.41,-1304 391.41,-1273.2 43.2,-1273.2"/>
<text text-anchor="start" x="50.2" y="-1285.4" font-family="Arial" font-size="14.00">company_id </text>
<text text-anchor="start" x="129.58" y="-1285.4" font-family="Arial" font-size="14.00" fill="#666666">[bigint unsigned]</text>
<text text-anchor="start" x="231.54" y="-1285.4" font-family="Arial" font-size="14.00"> 会社ID (NULL = 全社共通)</text>
<polygon fill="none" stroke="black" points="43.2,-1242.4 43.2,-1273.2 391.41,-1273.2 391.41,-1242.4 43.2,-1242.4"/>
<text text-anchor="start" x="50.2" y="-1254.6" font-family="Arial" font-size="14.00">perm_code </text>
<text text-anchor="start" x="124.13" y="-1254.6" font-family="Arial" font-size="14.00" fill="#666666">[varchar(50)]</text>
<text text-anchor="start" x="203.49" y="-1254.6" font-family="Arial" font-size="14.00"> 権限コード</text>
<polygon fill="none" stroke="black" points="43.2,-1211.6 43.2,-1242.4 391.41,-1242.4 391.41,-1211.6 43.2,-1211.6"/>
<text text-anchor="start" x="50.2" y="-1223.8" font-family="Arial" font-size="14.00">perm_name </text>
<text text-anchor="start" x="128.79" y="-1223.8" font-family="Arial" font-size="14.00" fill="#666666">[varchar(100)]</text>
<text text-anchor="start" x="215.94" y="-1223.8" font-family="Arial" font-size="14.00"> 権限名称</text>
<polygon fill="none" stroke="black" points="43.2,-1180.8 43.2,-1211.6 391.41,-1211.6 391.41,-1180.8 43.2,-1180.8"/>
<text text-anchor="start" x="50.2" y="-1193" font-family="Arial" font-size="14.00">perm_desc </text>
<text text-anchor="start" x="123.34" y="-1193" font-family="Arial" font-size="14.00" fill="#666666">[varchar(255)]</text>
<text text-anchor="start" x="210.49" y="-1193" font-family="Arial" font-size="14.00"> 説明</text>
<polygon fill="none" stroke="black" points="43.2,-1150 43.2,-1180.8 391.41,-1180.8 391.41,-1150 43.2,-1150"/>
<text text-anchor="start" x="50.2" y="-1162.2" font-family="Arial" font-size="14.00">perm_group </text>
<text text-anchor="start" x="129.58" y="-1162.2" font-family="Arial" font-size="14.00" fill="#666666">[varchar(50)]</text>
<text text-anchor="start" x="208.94" y="-1162.2" font-family="Arial" font-size="14.00"> 機能グループ</text>
<polygon fill="none" stroke="black" points="43.2,-1119.2 43.2,-1150 391.41,-1150 391.41,-1119.2 43.2,-1119.2"/>
<text text-anchor="start" x="50.2" y="-1131.4" font-family="Arial" font-size="14.00">valid_from </text>
<text text-anchor="start" x="118.67" y="-1131.4" font-family="Arial" font-size="14.00" fill="#666666">[datetime]</text>
<text text-anchor="start" x="180.14" y="-1131.4" font-family="Arial" font-size="14.00"> 有効開始日時</text>
<polygon fill="none" stroke="black" points="43.2,-1088.4 43.2,-1119.2 391.41,-1119.2 391.41,-1088.4 43.2,-1088.4"/>
<text text-anchor="start" x="50.2" y="-1100.6" font-family="Arial" font-size="14.00">valid_to </text>
<text text-anchor="start" x="102.34" y="-1100.6" font-family="Arial" font-size="14.00" fill="#666666">[datetime]</text>
<text text-anchor="start" x="163.82" y="-1100.6" font-family="Arial" font-size="14.00"> 有効終了日時</text>
<polygon fill="none" stroke="black" points="43.2,-1057.6 43.2,-1088.4 391.41,-1088.4 391.41,-1057.6 43.2,-1057.6"/>
<text text-anchor="start" x="50.2" y="-1069.8" font-family="Arial" font-size="14.00">deleted_at </text>
<text text-anchor="start" x="119.48" y="-1069.8" font-family="Arial" font-size="14.00" fill="#666666">[datetime]</text>
<text text-anchor="start" x="180.96" y="-1069.8" font-family="Arial" font-size="14.00"> 論理削除日時</text>
<polygon fill="none" stroke="black" points="43.2,-1026.8 43.2,-1057.6 391.41,-1057.6 391.41,-1026.8 43.2,-1026.8"/>
<text text-anchor="start" x="50.2" y="-1039" font-family="Arial" font-size="14.00">created_at </text>
<text text-anchor="start" x="120.25" y="-1039" font-family="Arial" font-size="14.00" fill="#666666">[datetime]</text>
<text text-anchor="start" x="181.72" y="-1039" font-family="Arial" font-size="14.00"> 登録日時</text>
<polygon fill="none" stroke="black" points="43.2,-996 43.2,-1026.8 391.41,-1026.8 391.41,-996 43.2,-996"/>
<text text-anchor="start" x="50.2" y="-1008.2" font-family="Arial" font-size="14.00">updated_at </text>
<text text-anchor="start" x="124.16" y="-1008.2" font-family="Arial" font-size="14.00" fill="#666666">[datetime]</text>
<text text-anchor="start" x="185.63" y="-1008.2" font-family="Arial" font-size="14.00"> 更新日時</text>
<polygon fill="none" stroke="black" points="43.2,-965.2 43.2,-996 391.41,-996 391.41,-965.2 43.2,-965.2"/>
<text text-anchor="start" x="50.2" y="-977.4" font-family="Arial" font-size="14.00">version </text>
<text text-anchor="start" x="99.22" y="-977.4" font-family="Arial" font-size="14.00" fill="#666666">[int unsigned]</text>
<text text-anchor="start" x="182.5" y="-977.4" font-family="Arial" font-size="14.00"> バージョン</text>
</g>
<!-- m_role_permission -->
<g id="node3" class="node">
<title>m_role_permission</title>
<polygon fill="#efefef" stroke="none" points="78.57,-796.8 78.57,-842.8 356.04,-842.8 356.04,-796.8 78.57,-796.8"/>
<polygon fill="none" stroke="black" points="78.57,-796.8 78.57,-842.8 356.04,-842.8 356.04,-796.8 78.57,-796.8"/>
<text text-anchor="start" x="85.57" y="-820.6" font-family="Arial Bold" font-size="18.00">m_role_permission</text>
<text text-anchor="start" x="224.55" y="-820.6" font-family="Arial" font-size="14.00">    </text>
<text text-anchor="start" x="255.67" y="-820.6" font-family="Arial" font-size="14.00" fill="#666666">[BASE TABLE]</text>
<text text-anchor="start" x="141.46" y="-806.2" font-family="Arial" font-size="14.00" fill="#333333">ロールパーミッションマスタ</text>
<polygon fill="none" stroke="black" points="78.57,-766 78.57,-796.8 356.04,-796.8 356.04,-766 78.57,-766"/>
<text text-anchor="start" x="85.57" y="-778.2" font-family="Arial" font-size="14.00">role_id </text>
<text text-anchor="start" x="131.49" y="-778.2" font-family="Arial" font-size="14.00" fill="#666666">[bigint unsigned]</text>
<text text-anchor="start" x="233.45" y="-778.2" font-family="Arial" font-size="14.00"> ロールID</text>
<polygon fill="none" stroke="black" points="78.57,-735.2 78.57,-766 356.04,-766 356.04,-735.2 78.57,-735.2"/>
<text text-anchor="start" x="85.57" y="-747.4" font-family="Arial" font-size="14.00">perm_id </text>
<text text-anchor="start" x="140.04" y="-747.4" font-family="Arial" font-size="14.00" fill="#666666">[bigint unsigned]</text>
<text text-anchor="start" x="242" y="-747.4" font-family="Arial" font-size="14.00"> パーミッションID</text>
<polygon fill="none" stroke="black" points="78.57,-704.4 78.57,-735.2 356.04,-735.2 356.04,-704.4 78.57,-704.4"/>
<text text-anchor="start" x="85.57" y="-716.6" font-family="Arial" font-size="14.00">valid_from </text>
<text text-anchor="start" x="154.04" y="-716.6" font-family="Arial" font-size="14.00" fill="#666666">[datetime]</text>
<text text-anchor="start" x="215.51" y="-716.6" font-family="Arial" font-size="14.00"> 付与開始日時</text>
<polygon fill="none" stroke="black" points="78.57,-673.6 78.57,-704.4 356.04,-704.4 356.04,-673.6 78.57,-673.6"/>
<text text-anchor="start" x="85.57" y="-685.8" font-family="Arial" font-size="14.00">valid_to </text>
<text text-anchor="start" x="137.71" y="-685.8" font-family="Arial" font-size="14.00" fill="#666666">[datetime]</text>
<text text-anchor="start" x="199.19" y="-685.8" font-family="Arial" font-size="14.00"> 付与終了日時</text>
<polygon fill="none" stroke="black" points="78.57,-642.8 78.57,-673.6 356.04,-673.6 356.04,-642.8 78.57,-642.8"/>
<text text-anchor="start" x="85.57" y="-655" font-family="Arial" font-size="14.00">deleted_at </text>
<text text-anchor="start" x="154.85" y="-655" font-family="Arial" font-size="14.00" fill="#666666">[datetime]</text>
<text text-anchor="start" x="216.33" y="-655" font-family="Arial" font-size="14.00"> 論理削除日時</text>
<polygon fill="none" stroke="black" points="78.57,-612 78.57,-642.8 356.04,-642.8 356.04,-612 78.57,-612"/>
<text text-anchor="start" x="85.57" y="-624.2" font-family="Arial" font-size="14.00">created_at </text>
<text text-anchor="start" x="155.62" y="-624.2" font-family="Arial" font-size="14.00" fill="#666666">[datetime]</text>
<text text-anchor="start" x="217.09" y="-624.2" font-family="Arial" font-size="14.00"> 登録日時</text>
<polygon fill="none" stroke="black" points="78.57,-581.2 78.57,-612 356.04,-612 356.04,-581.2 78.57,-581.2"/>
<text text-anchor="start" x="85.57" y="-593.4" font-family="Arial" font-size="14.00">updated_at </text>
<text text-anchor="start" x="159.53" y="-593.4" font-family="Arial" font-size="14.00" fill="#666666">[datetime]</text>
<text text-anchor="start" x="221" y="-593.4" font-family="Arial" font-size="14.00"> 更新日時</text>
</g>
<!-- m_permission&#45;&gt;m_role_permission -->
<g id="edge4" class="edge">
<title>m_permission:perm_id&#45;&gt;m_role_permission:perm_id</title>
<path fill="none" stroke="black" stroke-dasharray="5,2" d="M402.44,-1318.15C517.05,-1288.72 480.22,-750.6 357.04,-750.6"/>
<polygon fill="black" stroke="black" points="402.66,-1318.12 392.18,-1314.89 397.37,-1318.78 393.07,-1319.32 393.07,-1319.32 393.07,-1319.32 397.37,-1318.78 393.3,-1323.82 402.66,-1318.12"/>
<text text-anchor="start" x="399.41" y="-1329.4" font-family="Arial" font-size="10.00">Additional Relation</text>
</g>
<!-- m_role -->
<g id="node2" class="node">
<title>m_role</title>
<polygon fill="#efefef" stroke="none" points="43.2,-412.8 43.2,-458.8 391.41,-458.8 391.41,-412.8 43.2,-412.8"/>
<polygon fill="none" stroke="black" points="43.2,-412.8 43.2,-458.8 391.41,-458.8 391.41,-412.8 43.2,-412.8"/>
<text text-anchor="start" x="129.57" y="-436.6" font-family="Arial Bold" font-size="18.00">m_role</text>
<text text-anchor="start" x="180.55" y="-436.6" font-family="Arial" font-size="14.00">    </text>
<text text-anchor="start" x="211.67" y="-436.6" font-family="Arial" font-size="14.00" fill="#666666">[BASE TABLE]</text>
<text text-anchor="start" x="182.3" y="-422.2" font-family="Arial" font-size="14.00" fill="#333333">ロールマスタ</text>
<polygon fill="none" stroke="black" points="43.2,-382 43.2,-412.8 391.41,-412.8 391.41,-382 43.2,-382"/>
<text text-anchor="start" x="50.2" y="-394.2" font-family="Arial" font-size="14.00">role_id </text>
<text text-anchor="start" x="96.12" y="-394.2" font-family="Arial" font-size="14.00" fill="#666666">[bigint unsigned]</text>
<text text-anchor="start" x="198.08" y="-394.2" font-family="Arial" font-size="14.00"> ロールID（PK）</text>
<polygon fill="none" stroke="black" points="43.2,-351.2 43.2,-382 391.41,-382 391.41,-351.2 43.2,-351.2"/>
<text text-anchor="start" x="50.2" y="-363.4" font-family="Arial" font-size="14.00">company_id </text>
<text text-anchor="start" x="129.58" y="-363.4" font-family="Arial" font-size="14.00" fill="#666666">[bigint unsigned]</text>
<text text-anchor="start" x="231.54" y="-363.4" font-family="Arial" font-size="14.00"> 会社ID (NULL = 全社共通)</text>
<polygon fill="none" stroke="black" points="43.2,-320.4 43.2,-351.2 391.41,-351.2 391.41,-320.4 43.2,-320.4"/>
<text text-anchor="start" x="50.2" y="-332.6" font-family="Arial" font-size="14.00">role_code </text>
<text text-anchor="start" x="115.58" y="-332.6" font-family="Arial" font-size="14.00" fill="#666666">[varchar(30)]</text>
<text text-anchor="start" x="194.94" y="-332.6" font-family="Arial" font-size="14.00"> ロールコード</text>
<polygon fill="none" stroke="black" points="43.2,-289.6 43.2,-320.4 391.41,-320.4 391.41,-289.6 43.2,-289.6"/>
<text text-anchor="start" x="50.2" y="-301.8" font-family="Arial" font-size="14.00">role_name </text>
<text text-anchor="start" x="120.24" y="-301.8" font-family="Arial" font-size="14.00" fill="#666666">[varchar(100)]</text>
<text text-anchor="start" x="207.39" y="-301.8" font-family="Arial" font-size="14.00"> ロール名称</text>
<polygon fill="none" stroke="black" points="43.2,-258.8 43.2,-289.6 391.41,-289.6 391.41,-258.8 43.2,-258.8"/>
<text text-anchor="start" x="50.2" y="-271" font-family="Arial" font-size="14.00">role_desc </text>
<text text-anchor="start" x="114.79" y="-271" font-family="Arial" font-size="14.00" fill="#666666">[varchar(255)]</text>
<text text-anchor="start" x="201.94" y="-271" font-family="Arial" font-size="14.00"> ロール説明</text>
<polygon fill="none" stroke="black" points="43.2,-228 43.2,-258.8 391.41,-258.8 391.41,-228 43.2,-228"/>
<text text-anchor="start" x="50.2" y="-240.2" font-family="Arial" font-size="14.00">is_system_role </text>
<text text-anchor="start" x="147.45" y="-240.2" font-family="Arial" font-size="14.00" fill="#666666">[tinyint(1)]</text>
<text text-anchor="start" x="208.92" y="-240.2" font-family="Arial" font-size="14.00"> システムロール (1=システム)</text>
<polygon fill="none" stroke="black" points="43.2,-197.2 43.2,-228 391.41,-228 391.41,-197.2 43.2,-197.2"/>
<text text-anchor="start" x="50.2" y="-209.4" font-family="Arial" font-size="14.00">valid_from </text>
<text text-anchor="start" x="118.67" y="-209.4" font-family="Arial" font-size="14.00" fill="#666666">[datetime]</text>
<text text-anchor="start" x="180.14" y="-209.4" font-family="Arial" font-size="14.00"> 有効開始日時</text>
<polygon fill="none" stroke="black" points="43.2,-166.4 43.2,-197.2 391.41,-197.2 391.41,-166.4 43.2,-166.4"/>
<text text-anchor="start" x="50.2" y="-178.6" font-family="Arial" font-size="14.00">valid_to </text>
<text text-anchor="start" x="102.34" y="-178.6" font-family="Arial" font-size="14.00" fill="#666666">[datetime]</text>
<text text-anchor="start" x="163.82" y="-178.6" font-family="Arial" font-size="14.00"> 有効終了日時</text>
<polygon fill="none" stroke="black" points="43.2,-135.6 43.2,-166.4 391.41,-166.4 391.41,-135.6 43.2,-135.6"/>
<text text-anchor="start" x="50.2" y="-147.8" font-family="Arial" font-size="14.00">deleted_at </text>
<text text-anchor="start" x="119.48" y="-147.8" font-family="Arial" font-size="14.00" fill="#666666">[datetime]</text>
<text text-anchor="start" x="180.96" y="-147.8" font-family="Arial" font-size="14.00"> 論理削除日時</text>
<polygon fill="none" stroke="black" points="43.2,-104.8 43.2,-135.6 391.41,-135.6 391.41,-104.8 43.2,-104.8"/>
<text text-anchor="start" x="50.2" y="-117" font-family="Arial" font-size="14.00">created_at </text>
<text text-anchor="start" x="120.25" y="-117" font-family="Arial" font-size="14.00" fill="#666666">[datetime]</text>
<text text-anchor="start" x="181.72" y="-117" font-family="Arial" font-size="14.00"> 登録日時</text>
<polygon fill="none" stroke="black" points="43.2,-74 43.2,-104.8 391.41,-104.8 391.41,-74 43.2,-74"/>
<text text-anchor="start" x="50.2" y="-86.2" font-family="Arial" font-size="14.00">updated_at </text>
<text text-anchor="start" x="124.16" y="-86.2" font-family="Arial" font-size="14.00" fill="#666666">[datetime]</text>
<text text-anchor="start" x="185.63" y="-86.2" font-family="Arial" font-size="14.00"> 更新日時</text>
<polygon fill="none" stroke="black" points="43.2,-43.2 43.2,-74 391.41,-74 391.41,-43.2 43.2,-43.2"/>
<text text-anchor="start" x="50.2" y="-55.4" font-family="Arial" font-size="14.00">version </text>
<text text-anchor="start" x="99.22" y="-55.4" font-family="Arial" font-size="14.00" fill="#666666">[int unsigned]</text>
<text text-anchor="start" x="182.5" y="-55.4" font-family="Arial" font-size="14.00"> バージョン</text>
</g>
<!-- m_role&#45;&gt;m_role_permission -->
<g id="edge3" class="edge">
<title>m_role:role_id&#45;&gt;m_role_permission:role_id</title>
<path fill="none" stroke="black" stroke-dasharray="5,2" d="M402.35,-399.28C475.12,-428.25 439.22,-781.4 357.04,-781.4"/>
<polygon fill="black" stroke="black" points="402.56,-399.33 393.58,-393.04 397.32,-398.33 393.07,-397.52 393.07,-397.52 393.07,-397.52 397.32,-398.33 391.9,-401.88 402.56,-399.33"/>
<text text-anchor="start" x="399.41" y="-407.4" font-family="Arial" font-size="10.00">Additional Relation</text>
</g>
<!-- m_role_permission&#45;&gt;m_permission -->
<g id="edge2" class="edge">
<title>m_role_permission:perm_id&#45;&gt;m_permission:perm_id</title>
<path fill="none" stroke="black" d="M367.22,-751.85C485.5,-781.28 515.59,-1319.4 392.41,-1319.4"/>
<polygon fill="black" stroke="black" points="367.3,-751.86 357.92,-746.17 362,-751.21 357.7,-750.68 357.7,-750.68 357.7,-750.68 362,-751.21 356.82,-755.11 367.3,-751.86"/>
<text text-anchor="start" x="364.04" y="-760.6" font-family="Arial" font-size="10.00">FOREIGN KEY (perm_id) REFERENCES m_permission (perm_id)</text>
</g>
<!-- m_role_permission&#45;&gt;m_role -->
<g id="edge1" class="edge">
<title>m_role_permission:role_id&#45;&gt;m_role:role_id</title>
<path fill="none" stroke="black" d="M366.85,-779.69C445.31,-751.99 474.76,-397.4 392.41,-397.4"/>
<polygon fill="black" stroke="black" points="367.22,-779.62 356.6,-776.91 361.97,-780.54 357.7,-781.28 357.7,-781.28 357.7,-781.28 361.97,-780.54 358.14,-785.78 367.22,-779.62"/>
<text text-anchor="start" x="364.04" y="-791.4" font-family="Arial" font-size="10.00">FOREIGN KEY (role_id) REFERENCES m_role (role_id)</text>
</g>
</g>
</svg>
